<svg data-name="01-Money" xmlns="http://www.w3.org/2000/svg" viewBox="0 0 64 64"><circle cx="32" cy="16" r="15" style="fill:#febd55"/><circle cx="32" cy="16" r="13" style="fill:#fc9e20"/><circle cx="32" cy="16" r="12" style="fill:#ffe08c"/><path style="fill:#febd55" d="M63 44v19H51l12-19z"/><path style="fill:#edf4fa" d="M54.68 44.68 57 41l6 3-12 19-6-3 1.94-3.06 7.74-12.26z"/><path d="M13.59 29.59A1.955 1.955 0 0 1 15 29a6.87 6.87 0 0 1 3.69 1.07L28 36h-4.5a3.414 3.414 0 0 0-1.99.63L13.17 31c-.05-.04-.11-.07-.16-.11a1.936 1.936 0 0 1 .58-1.3z" style="fill:#feb589"/><path d="M22 43s-8.95-7.16-13.03-10.42a7.893 7.893 0 0 0-.97-.66v-.19A1.794 1.794 0 0 1 9.86 30H10a5.449 5.449 0 0 1 3.01.89c.05.04.11.07.16.11l8.34 5.63a3.637 3.637 0 0 0-.48.4A3.46 3.46 0 0 0 20 39.5a3.5 3.5 0 0 0 3.5 3.5H22z" style="fill:#feb589"/><path d="M8.97 32.58C13.05 35.84 22 43 22 43h1.5a3.5 3.5 0 0 1-3.5-3.5 3.46 3.46 0 0 1 1.03-2.47 3.637 3.637 0 0 1 .48-.4A3.414 3.414 0 0 1 23.5 36H42a9.691 9.691 0 0 1 6.83 2.83l5.85 5.85-7.74 12.26L46 56H28.69a12.544 12.544 0 0 1-8.23-3.07L2.13 37.03A3.477 3.477 0 0 1 1 34.47v-.09A3.376 3.376 0 0 1 4.38 31h.07a7.251 7.251 0 0 1 3.55.92 7.893 7.893 0 0 1 .97.66z" style="fill:#ffd6bd"/><path d="M39 40H24a3.985 3.985 0 0 1-3.546-2.186A3.447 3.447 0 0 0 20 39.5a3.5 3.5 0 0 0 3.5 3.5H42a3 3 0 0 0-3-3z" style="fill:#fec09b"/><path d="m52.222 42.222-2.685 4.221A12 12 0 0 1 39.413 52H27.1a5.993 5.993 0 0 1-3.74-1.309L4.648 35.773a4 4 0 0 1-1.323-4.589A3.364 3.364 0 0 0 1 34.38v.09a3.477 3.477 0 0 0 1.13 2.56l18.33 15.9A12.544 12.544 0 0 0 28.69 56H46l.94.94 7.74-12.26z" style="fill:#fec09b"/><path d="M20 39.5a3.46 3.46 0 0 1 1.03-2.47 3.637 3.637 0 0 1 .48-.4l-.727-.491a3.994 3.994 0 0 1-4.49.138l-7.241-4.608a.982.982 0 0 1-.323-1.306A1.681 1.681 0 0 0 8 31.73v.19a7.893 7.893 0 0 1 .97.66C13.05 35.84 22 43 22 43h1.5a3.5 3.5 0 0 1-3.5-3.5z" style="fill:#eda377"/><path d="M23.606 35a6 6 0 0 1-3-.8l-5.127-2.957a1.987 1.987 0 0 1-1.058-2.143 1.982 1.982 0 0 0-1.411 1.8c.05.04.11.07.16.11l8.34 5.63A3.414 3.414 0 0 1 23.5 36H28l-1.57-1z" style="fill:#eda377"/><path d="M60.446 58a2 2 0 0 1-1.736-2.992L63 47.5V44L51 63h12v-5z" style="fill:#fc9e20"/><path d="m60.022 42.511-8.189 12.656a3.991 3.991 0 0 1-4.759 1.561l-.134.212L45 60l6 3 12-19z" style="fill:#d6e0eb"/><path d="M32 32h.168A16 16 0 1 0 17.332 9.6l1.833.8A14.026 14.026 0 0 1 31.854 2 14 14 0 0 1 46 15.854 14 14 0 0 1 32.146 30H32a14 14 0 0 1-14-13.854l-2 .02A16.018 16.018 0 0 0 32 32z"/><path d="m18.5 12.266-1.928-.531a15.936 15.936 0 0 0-.434 2.133l1.982.263a14.076 14.076 0 0 1 .38-1.865zM31 6v2h-.5a4.5 4.5 0 0 0 0 9h3a2.5 2.5 0 0 1 0 5H28v2h3v2h2v-2h.5a4.5 4.5 0 0 0 0-9h-3a2.5 2.5 0 0 1 0-5H36V8h-3V6zM40 42h2v2h-2z"/><path d="m63.447 43.105-6-3a1 1 0 0 0-1.293.361l-9.4 14.878-.051-.051A1 1 0 0 0 46 55H28.69a11.55 11.55 0 0 1-7.575-2.825L2.806 36.292A2.529 2.529 0 0 1 2 34.38 2.4 2.4 0 0 1 4.45 32a6.249 6.249 0 0 1 3.043.782 7.022 7.022 0 0 1 .853.579l13.029 10.42A1 1 0 0 0 22 44h16v-2H23.5a2.5 2.5 0 0 1-2.5-2.5 2.453 2.453 0 0 1 .736-1.762 2.639 2.639 0 0 1 .355-.294A2.4 2.4 0 0 1 23.5 37H42a8.69 8.69 0 0 1 6.123 2.537l4.171 4.171 1.414-1.414-4.171-4.171A10.687 10.687 0 0 0 42 35H23.5a4.431 4.431 0 0 0-1.952.449l-7.388-4.983a1.13 1.13 0 0 1 .146-.178A.957.957 0 0 1 15 30a5.87 5.87 0 0 1 3.153.913l6.313 4.022 1.074-1.687-6.313-4.022A7.865 7.865 0 0 0 15 28a2.94 2.94 0 0 0-2.118.883 3.025 3.025 0 0 0-.451.6A6.354 6.354 0 0 0 10 29h-.14a2.868 2.868 0 0 0-2.55 1.519A8.518 8.518 0 0 0 4.38 30 4.405 4.405 0 0 0 0 34.47a4.5 4.5 0 0 0 1.475 3.315l18.325 15.9A13.551 13.551 0 0 0 28.69 57h16.9l.077.077-1.509 2.389a1 1 0 0 0 .4 1.429l6 3A1 1 0 0 0 51 64h12a1 1 0 0 0 1-1V44a1 1 0 0 0-.553-.895zM9.86 31H10a4.471 4.471 0 0 1 2.444.715l.017.012.149.1 7.331 4.948A4.418 4.418 0 0 0 19 39.323L9.6 31.8a7.302 7.302 0 0 0-.509-.376l-.007-.006A.88.88 0 0 1 9.86 31zm40.778 30.7-4.2-2.1 10.924-17.3 4.2 2.1zM62 62h-9.186L62 47.456z"/></svg>